<?xml version="1.0" encoding="utf-8"?>
<!-- Generator: Adobe Illustrator 25.3.1, SVG Export Plug-In . SVG Version: 6.00 Build 0)  -->
<svg version="1.1" id="Layer_1" xmlns="http://www.w3.org/2000/svg" xmlns:xlink="http://www.w3.org/1999/xlink" x="0px" y="0px"
	 viewBox="0 0 160 160" style="enable-background:new 0 0 160 160;" xml:space="preserve">
<g>
	<path d="M43.56,5.79v89.06c0,4.51,0.62,9.2,1.85,14.06c1.23,4.86,3.28,9.34,6.16,13.44c2.87,4.1,6.63,7.46,11.29,10.06
		c4.65,2.6,10.4,3.9,17.24,3.9c6.84,0,12.59-1.3,17.24-3.9c4.65-2.6,8.41-5.95,11.29-10.06c2.87-4.1,4.93-8.58,6.16-13.44
		c1.23-4.85,1.85-9.54,1.85-14.06V5.79h19.7v92.14c0,8.48-1.44,16.18-4.31,23.09c-2.87,6.91-6.84,12.9-11.9,17.96
		c-5.06,5.06-11.01,8.96-17.85,11.7c-6.84,2.73-14.23,4.1-22.16,4.1c-7.94,0-15.32-1.37-22.16-4.1c-6.84-2.74-12.79-6.63-17.85-11.7
		c-5.06-5.06-9.03-11.05-11.9-17.96c-2.87-6.91-4.31-14.6-4.31-23.09V5.79H43.56z"/>
</g>
<rect x="34.11" y="63.1" width="91.79" height="17.11"/>
<g>
</g>
<g>
</g>
<g>
</g>
<g>
</g>
<g>
</g>
<g>
</g>
</svg>
